<svg width="32" height="32" viewBox="0 0 32 32" fill="none" xmlns="http://www.w3.org/2000/svg">
  <rect width="32" height="32" rx="8" fill="#3B82F6"/>
  <path d="M8 12H24V20H8V12Z" fill="white" fill-opacity="0.9"/>
  <path d="M10 14H14V18H10V14Z" fill="#3B82F6"/>
  <path d="M16 14H22V16H16V14Z" fill="#3B82F6"/>
  <path d="M16 18H20V16H16V18Z" fill="#3B82F6"/>
  <circle cx="26" cy="8" r="3" fill="#10B981"/>
  <path d="M24.5 8L25.5 9L27.5 7" stroke="white" stroke-width="1" stroke-linecap="round" stroke-linejoin="round"/>
  <path d="M8 24L16 22L24 24L24 26L16 24L8 26V24Z" fill="white" fill-opacity="0.9"/>
  <path d="M12 10C12.5523 10 13 9.55228 13 9C13 8.44772 12.5523 8 12 8C11.4477 8 11 8.44772 11 9C11 9.55228 11.4477 10 12 10Z" fill="#3B82F6"/>
  <path d="M20 10C20.5523 10 21 9.55228 21 9C21 8.44772 20.5523 8 20 8C19.4477 8 19 8.44772 19 9C19 9.55228 19.4477 10 20 10Z" fill="#3B82F6"/>
</svg>
